<svg width="180" height="180" viewBox="0 0 180 180" fill="none" xmlns="http://www.w3.org/2000/svg">
  <defs>
    <linearGradient id="bgApple" x1="0%" y1="0%" x2="100%" y2="100%">
      <stop offset="0%" style="stop-color:#10b981;stop-opacity:1" />
      <stop offset="100%" style="stop-color:#059669;stop-opacity:1" />
    </linearGradient>
    <linearGradient id="leafApple" x1="0%" y1="0%" x2="100%" y2="100%">
      <stop offset="0%" style="stop-color:#34d399;stop-opacity:1" />
      <stop offset="100%" style="stop-color:#10b981;stop-opacity:1" />
    </linearGradient>
  </defs>
  
  <!-- Rounded rectangle background -->
  <rect width="180" height="180" rx="40" fill="url(#bgApple)"/>
  
  <!-- Car -->
  <path d="M35 105h12c0 6.6 5.4 12 12 12s12-5.4 12-12h48c0 6.6 5.4 12 12 12s12-5.4 12-12h12v-24c0-3-1.2-6-3-8.4L145 62c-1.8-1.8-4.2-3-6-3h-18V54c0-3.6-2.4-6-6-6H48c-3.6 0-6 2.4-6 6v51z" fill="white" fill-opacity="0.95"/>
  <circle cx="59" cy="105" r="9" fill="#374151"/>
  <circle cx="131" cy="105" r="9" fill="#374151"/>
  
  <!-- Eco leaf -->
  <path d="M105 35c-12 0-24 9-24 24 0 9 4.8 16.8 12 21 3-.8 7.2-3 12-3s9 2.2 12 3c7.2-4.2 12-12 12-21 0-15-12-24-24-24z" fill="url(#leafApple)"/>
  <path d="M105 35c0 12 6 21 15 27" stroke="#059669" stroke-width="3" fill="none"/>
  
  <!-- EcoMeter text -->
  <text x="90" y="140" text-anchor="middle" fill="white" font-family="Arial, sans-serif" font-size="14" font-weight="bold">EcoMeter</text>
</svg>