<svg xmlns="http://www.w3.org/2000/svg" width="16" height="16" fill="none" viewBox="0 0 16 16"><circle cx="8" cy="8" r="8" fill="#10b981"/><path fill="#fff" d="M3 9h1c0 .5.4 1 1 1s1-.5 1-1h4c0 .5.4 1 1 1s1-.5 1-1h1v-2c0-.3-.1-.5-.3-.7L11.5 5.5c-.1-.1-.3-.2-.5-.2h-1.5V4.5c0-.3-.2-.5-.5-.5H4c-.3 0-.5.2-.5.5v4.5z"/><circle cx="5" cy="9" r=".8" fill="#374151"/><circle cx="11" cy="9" r=".8" fill="#374151"/><path fill="#34d399" d="M9 3c-1 0-2 .8-2 2 0 .8.4 1.4 1 1.8.2-.2.6-.3 1-.3s.8.1 1 .3c.6-.4 1-1 1-1.8 0-1.2-1-2-2-2z"/></svg>