<svg xmlns="http://www.w3.org/2000/svg" width="32" height="32" fill="none" viewBox="0 0 32 32"><defs><linearGradient id="bg" x1="0%" x2="100%" y1="0%" y2="100%"><stop offset="0%" style="stop-color:#10b981;stop-opacity:1"/><stop offset="100%" style="stop-color:#059669;stop-opacity:1"/></linearGradient><linearGradient id="leaf" x1="0%" x2="100%" y1="0%" y2="100%"><stop offset="0%" style="stop-color:#34d399;stop-opacity:1"/><stop offset="100%" style="stop-color:#10b981;stop-opacity:1"/></linearGradient></defs><circle cx="16" cy="16" r="16" fill="url(#bg)"/><path fill="#fff" fill-opacity=".9" d="M6 18h2c0 1.1.9 2 2 2s2-.9 2-2h8c0 1.1.9 2 2 2s2-.9 2-2h2v-4c0-.5-.2-1-.5-1.4L24 11c-.3-.3-.7-.5-1-.5h-3V9c0-.6-.4-1-1-1H8c-.6 0-1 .4-1 1v9z"/><circle cx="10" cy="18" r="1.5" fill="#374151"/><circle cx="22" cy="18" r="1.5" fill="#374151"/><path fill="url(#leaf)" d="M18 6c-2 0-4 1.5-4 4 0 1.5.8 2.8 2 3.5.5-.3 1.2-.5 2-.5s1.5.2 2 .5c1.2-.7 2-2 2-3.5 0-2.5-2-4-4-4z"/><path fill="none" stroke="#059669" stroke-width=".5" d="M18 6c0 2 1 3.5 2.5 4.5"/><circle cx="25" cy="8" r="3" fill="#ef4444" opacity=".8"/><path stroke="#fff" stroke-linecap="round" stroke-width="1.2" d="M23.5 8h3M25 6.5v3"/></svg>